<?xml version="1.0" standalone="no"?>
<!DOCTYPE svg PUBLIC "-//W3C//DTD SVG 20010904//EN"
 "http://www.w3.org/TR/2001/REC-SVG-20010904/DTD/svg10.dtd">
<svg version="1.0" xmlns="http://www.w3.org/2000/svg"
 width="500.000000pt" height="500.000000pt" viewBox="0 0 500.000000 500.000000"
 preserveAspectRatio="xMidYMid meet">
<metadata>
Created by potrace 1.14, written by Peter Selinger 2001-2017
</metadata>
<g transform="translate(0.000000,500.000000) scale(0.100000,-0.100000)"
fill="#000000" stroke="none">
<path d="M3700 3083 c-61 -11 -170 -75 -229 -133 -236 -237 -168 -627 136
-777 l77 -38 131 0 131 0 76 38 c144 71 246 209 270 365 37 235 -113 469 -341
536 -51 15 -189 20 -251 9z m-20 -453 l0 -220 -40 0 -40 0 0 220 0 220 40 0
40 0 0 -220z m320 85 c30 -27 40 -78 40 -197 l0 -108 -45 0 -45 0 0 118 c0
126 -5 142 -49 142 -52 0 -61 -22 -61 -147 l0 -113 -45 0 -45 0 0 160 0 160
45 0 c25 0 45 -5 45 -11 0 -5 10 -3 23 6 28 21 109 15 137 -10z"/>
<path d="M1815 2965 c-14 -13 -25 -33 -25 -45 0 -32 44 -70 80 -70 36 0 80 38
80 70 0 32 -44 70 -80 70 -19 0 -40 -9 -55 -25z"/>
<path d="M800 2901 l0 -80 -32 -3 c-32 -3 -33 -4 -36 -55 l-3 -53 35 0 36 0 0
-149 c0 -144 1 -151 24 -178 23 -26 31 -28 110 -32 l86 -3 0 55 0 56 -37 3
-38 3 -3 123 -3 122 41 0 40 0 0 55 0 55 -40 0 -40 0 0 80 0 80 -70 0 -70 0 0
-79z"/>
<path d="M2070 2900 l0 -80 -35 0 -35 0 0 -55 0 -55 35 0 35 0 0 -152 c1 -197
9 -208 144 -208 l76 0 0 54 0 55 -37 3 -38 3 -3 123 -3 122 41 0 41 0 -3 53
-3 52 -37 3 -37 3 -3 77 -3 77 -67 3 -68 3 0 -81z"/>
<path d="M2880 2665 l0 -315 70 0 70 0 0 159 c0 140 2 161 19 182 13 16 29 23
55 23 66 0 71 -13 74 -199 l3 -165 70 0 71 0 -4 183 c-3 200 -10 225 -71 271
-42 31 -140 30 -184 -2 l-33 -23 0 100 0 101 -70 0 -70 0 0 -315z"/>
<path d="M2508 2817 c-61 -18 -113 -58 -140 -110 -30 -56 -32 -184 -4 -237 40
-77 103 -118 191 -127 81 -8 153 17 204 72 22 24 41 49 41 54 0 5 3 16 6 25 5
14 -4 16 -64 16 -65 0 -73 -2 -100 -30 -84 -83 -189 24 -153 157 13 49 38 72
85 80 31 5 39 1 65 -26 27 -29 33 -31 101 -31 62 0 71 2 66 16 -3 9 -6 20 -6
24 0 18 -64 82 -101 100 -50 26 -133 33 -191 17z"/>
<path d="M1060 2807 c0 -7 31 -111 68 -232 l69 -220 66 -3 66 -3 9 33 c5 18
20 77 32 131 13 53 27 97 30 97 3 0 19 -58 35 -130 l30 -130 65 0 66 0 72 224
c40 123 72 229 72 235 0 7 -25 11 -70 11 l-69 0 -9 -32 c-5 -18 -19 -73 -32
-123 -13 -49 -26 -93 -29 -97 -4 -4 -22 51 -40 122 l-34 130 -58 0 -58 0 -15
-52 c-8 -29 -22 -84 -32 -123 -9 -38 -20 -73 -23 -78 -4 -4 -18 37 -31 90 -12
54 -27 113 -32 131 l-9 32 -69 0 c-50 0 -70 -4 -70 -13z"/>
<path d="M1800 2585 l0 -235 70 0 70 0 0 235 0 235 -70 0 -70 0 0 -235z"/>
</g>
</svg>
